<svg width="33" height="33" viewBox="0 0 33 33" fill="none" xmlns="http://www.w3.org/2000/svg">
<path d="M15.4281 6.27808H6.09477C5.38752 6.27808 4.70925 6.55903 4.20915 7.05912C3.70905 7.55922 3.4281 8.2375 3.4281 8.94474V27.6114C3.4281 28.3187 3.70905 28.9969 4.20915 29.497C4.70925 29.9971 5.38752 30.2781 6.09477 30.2781H24.7614C25.4687 30.2781 26.147 29.9971 26.6471 29.497C27.1471 28.9969 27.4281 28.3187 27.4281 27.6114V18.2781" stroke="white" stroke-width="2" stroke-linecap="round" stroke-linejoin="round"/>
<path d="M25.4281 4.27813C25.9585 3.7477 26.678 3.44971 27.4281 3.44971C28.1782 3.44971 28.8977 3.7477 29.4281 4.27813C29.9585 4.80857 30.2565 5.52799 30.2565 6.27813C30.2565 7.02828 29.9585 7.7477 29.4281 8.27813L16.7614 20.9448L11.4281 22.2781L12.7614 16.9448L25.4281 4.27813Z" stroke="white" stroke-width="2" stroke-linecap="round" stroke-linejoin="round"/>
</svg>
