<svg width="26" height="17" viewBox="0 0 26 17" fill="none" xmlns="http://www.w3.org/2000/svg">
<path d="M8 8.5C10.418 8.5 12.375 6.59888 12.375 4.25C12.375 1.90112 10.418 0 8 0C5.58203 0 3.625 1.90112 3.625 4.25C3.625 6.59888 5.58203 8.5 8 8.5ZM11 9.71429H10.6758C9.86328 10.0938 8.96094 10.3214 8 10.3214C7.03906 10.3214 6.14062 10.0938 5.32422 9.71429H5C2.51562 9.71429 0.5 11.6723 0.5 14.0857V15.1786C0.5 16.1842 1.33984 17 2.375 17H13.625C14.6602 17 15.5 16.1842 15.5 15.1786V14.0857C15.5 11.6723 13.4844 9.71429 11 9.71429ZM19.25 8.5C21.3203 8.5 23 6.8683 23 4.85714C23 2.84598 21.3203 1.21429 19.25 1.21429C17.1797 1.21429 15.5 2.84598 15.5 4.85714C15.5 6.8683 17.1797 8.5 19.25 8.5ZM21.125 9.71429H20.9766C20.4336 9.89643 19.8594 10.0179 19.25 10.0179C18.6406 10.0179 18.0664 9.89643 17.5234 9.71429H17.375C16.5781 9.71429 15.8438 9.93817 15.1992 10.2987C16.1523 11.2967 16.75 12.621 16.75 14.0857V15.5429C16.75 15.6263 16.7305 15.706 16.7266 15.7857H23.625C24.6602 15.7857 25.5 14.9699 25.5 13.9643C25.5 11.6154 23.543 9.71429 21.125 9.71429Z" fill="#FF4A4A"/>
</svg>
