<svg width="32" height="32" viewBox="0 0 32 32" fill="none" xmlns="http://www.w3.org/2000/svg">
<path d="M4 8H6.66667H28" stroke="white" stroke-width="2" stroke-linecap="round" stroke-linejoin="round"/>
<path d="M25.3333 8.00008V26.6667C25.3333 27.374 25.0523 28.0523 24.5522 28.5524C24.0521 29.0525 23.3739 29.3334 22.6666 29.3334H9.33329C8.62605 29.3334 7.94777 29.0525 7.44767 28.5524C6.94758 28.0523 6.66663 27.374 6.66663 26.6667V8.00008M10.6666 8.00008V5.33341C10.6666 4.62617 10.9476 3.94789 11.4477 3.4478C11.9478 2.9477 12.626 2.66675 13.3333 2.66675H18.6666C19.3739 2.66675 20.0521 2.9477 20.5522 3.4478C21.0523 3.94789 21.3333 4.62617 21.3333 5.33341V8.00008" stroke="white" stroke-width="2" stroke-linecap="round" stroke-linejoin="round"/>
<path d="M13.3334 14.6667V22.6667" stroke="white" stroke-width="2" stroke-linecap="round" stroke-linejoin="round"/>
<path d="M18.6666 14.6667V22.6667" stroke="white" stroke-width="2" stroke-linecap="round" stroke-linejoin="round"/>
</svg>
