<svg width="25" height="24" viewBox="0 0 25 24" fill="none" xmlns="http://www.w3.org/2000/svg">
<path d="M12.5 15C14.1569 15 15.5 13.6569 15.5 12C15.5 10.3431 14.1569 9 12.5 9C10.8431 9 9.5 10.3431 9.5 12C9.5 13.6569 10.8431 15 12.5 15Z" fill="#FF4A4A"/>
<path d="M23.705 11.745C22.8229 9.46324 21.2915 7.48996 19.3001 6.06906C17.3088 4.64817 14.9447 3.84193 12.5 3.75C10.0554 3.84193 7.69134 4.64817 5.69995 6.06906C3.70856 7.48996 2.17717 9.46324 1.29505 11.745C1.23547 11.9098 1.23547 12.0902 1.29505 12.255C2.17717 14.5368 3.70856 16.51 5.69995 17.9309C7.69134 19.3518 10.0554 20.1581 12.5 20.25C14.9447 20.1581 17.3088 19.3518 19.3001 17.9309C21.2915 16.51 22.8229 14.5368 23.705 12.255C23.7646 12.0902 23.7646 11.9098 23.705 11.745ZM12.5 16.875C11.5359 16.875 10.5933 16.5891 9.79164 16.0534C8.98995 15.5177 8.36511 14.7564 7.99614 13.8656C7.62716 12.9748 7.53062 11.9946 7.71872 11.0489C7.90682 10.1033 8.37112 9.23464 9.0529 8.55285C9.73468 7.87107 10.6033 7.40677 11.549 7.21867C12.4946 7.03057 13.4748 7.12711 14.3656 7.49609C15.2564 7.86506 16.0178 8.48991 16.5535 9.2916C17.0891 10.0933 17.375 11.0358 17.375 12C17.3731 13.2923 16.8588 14.5311 15.945 15.445C15.0312 16.3588 13.7924 16.873 12.5 16.875Z" fill="#FF4A4A"/>
</svg>
